<svg xmlns="http://www.w3.org/2000/svg" width="500" height="300" viewBox="0 0 500 300"><rect x="0" y="0" width="500" height="300" fill="rgb(255,255,255)"></rect><rect x="40" y="20" width="430" height="250" stroke="rgb(155,155,155)" fill="rgb(216,216,216)"></rect><rect x="40" y="69.99999999999999" width="430" height="200" fill="rgb(216,216,216)"></rect><rect x="40" y="20" width="430" height="49.999999999999986" fill="rgb(215,197,178)"></rect><g class="y-axis" transform="translate(40, 0)" fill="none" font-size="10" font-family="sans-serif" text-anchor="end"><path class="domain" stroke="rgb(155,155,155)" d="M0.5,270.5V20.5"></path><g class="tick" opacity="1" transform="translate(0,270.5)"><line stroke="currentColor" x2="0"></line><text fill="currentColor" x="-3" dy="0.32em">0</text><line class="y-grid-line" stroke="rgb(230,230,230)" x1="0" x2="430" y1="0" y2="0"></line></g><g class="tick" opacity="1" transform="translate(0,70.49999999999999)"><line stroke="currentColor" x2="0"></line><text fill="currentColor" x="-3" dy="0.32em">400</text><line class="y-grid-line" stroke="rgb(230,230,230)" x1="0" x2="430" y1="0" y2="0"></line></g></g><g class="x-axis" transform="translate(0,270)" fill="none" font-size="10" font-family="sans-serif" text-anchor="middle"><path class="domain" stroke="rgb(155,155,155)" d="M40.5,0.5H470.5"></path><g class="tick" opacity="1" transform="translate(86.18494776828109,0)"><line stroke="currentColor" y2="0"></line><text fill="currentColor" y="3" dy="0.71em">May</text><line class="grid-line" stroke="rgb(230,230,230)" x1="0" x2="0" y1="0" y2="-250"></line></g><g class="tick" opacity="1" transform="translate(200.11657169990505,0)"><line stroke="currentColor" y2="0"></line><text fill="currentColor" y="3" dy="0.71em">Jun</text><line class="grid-line" stroke="rgb(230,230,230)" x1="0" x2="0" y1="0" y2="-250"></line></g><g class="tick" opacity="1" transform="translate(310.3729819563153,0)"><line stroke="currentColor" y2="0"></line><text fill="currentColor" y="3" dy="0.71em">Jul</text><line class="grid-line" stroke="rgb(230,230,230)" x1="0" x2="0" y1="0" y2="-250"></line></g><g class="tick" opacity="1" transform="translate(424.3046058879392,0)"><line stroke="currentColor" y2="0"></line><text fill="currentColor" y="3" dy="0.71em">Aug</text><line class="grid-line" stroke="rgb(230,230,230)" x1="0" x2="0" y1="0" y2="-250"></line></g></g><path fill="none" stroke="rgb(180, 180, 180)" stroke-width="2" d="M150.256,262.5L175.983,247.5L201.709,234L227.436,224.5L253.162,200L278.889,154L308.291,149.5L330.342,130L356.068,120.5"></path><g><circle cx="150.25641025641025" cy="262.5" r="4" fill="rgb(123,123,123)" stroke="rgb(255,255,255)" stroke-width="1"></circle><circle cx="175.982905982906" cy="247.50000000000003" r="4" fill="rgb(123,123,123)" stroke="rgb(255,255,255)" stroke-width="1"></circle><circle cx="201.7094017094017" cy="234" r="4" fill="rgb(123,123,123)" stroke="rgb(255,255,255)" stroke-width="1"></circle><circle cx="227.43589743589743" cy="224.5" r="4" fill="rgb(123,123,123)" stroke="rgb(255,255,255)" stroke-width="1"></circle><circle cx="253.1623931623932" cy="200" r="4" fill="rgb(123,123,123)" stroke="rgb(255,255,255)" stroke-width="1"></circle><circle cx="278.8888888888889" cy="154" r="4" fill="rgb(123,123,123)" stroke="rgb(255,255,255)" stroke-width="1"></circle><circle cx="308.29059829059827" cy="149.5" r="4" fill="rgb(123,123,123)" stroke="rgb(255,255,255)" stroke-width="1"></circle><circle cx="330.34188034188037" cy="129.99999999999997" r="4" fill="rgb(123,123,123)" stroke="rgb(255,255,255)" stroke-width="1"></circle><circle cx="356.0683760683761" cy="120.5" r="4" fill="rgb(123,123,123)" stroke="rgb(255,255,255)" stroke-width="1"></circle></g></svg>