<svg width="500" height="300" xmlns="http://www.w3.org/2000/svg"><rect x="40" y="20" width="430" height="250" stroke="rgb(155,155,155)" fill="rgb(216,216,216)"></rect><rect x="40" y="69.99999999999999" width="430" height="200" fill="rgb(216,216,216)"></rect><rect x="40" y="20" width="430" height="49.999999999999986" fill="rgb(215,197,178)"></rect><g class="y-axis" transform="translate(40, 0)" fill="none" font-size="10" font-family="sans-serif" text-anchor="end"><path class="domain" stroke="rgb(155,155,155)" d="M0.5,270.5V20.5"></path><g class="tick" opacity="1" transform="translate(0,270.5)"><line stroke="currentColor" x2="0"></line><text fill="currentColor" x="-3" dy="0.32em">0</text><line class="y-grid-line" stroke="rgb(230,230,230)" x1="0" x2="430" y1="0" y2="0"></line></g><g class="tick" opacity="1" transform="translate(0,70.49999999999999)"><line stroke="currentColor" x2="0"></line><text fill="currentColor" x="-3" dy="0.32em">400</text><line class="y-grid-line" stroke="rgb(230,230,230)" x1="0" x2="430" y1="0" y2="0"></line></g></g><g class="x-axis" transform="translate(0,270)" fill="none" font-size="10" font-family="sans-serif" text-anchor="middle"><path class="domain" stroke="rgb(155,155,155)" d="M40.5,0.5H470.5"></path><g class="tick" opacity="1" transform="translate(89.09217171717171,0)"><line stroke="currentColor" y2="0"></line><text fill="currentColor" y="3" dy="0.71em">May</text><line class="grid-line" stroke="rgb(230,230,230)" x1="0" x2="0" y1="0" y2="-250"></line></g><g class="tick" opacity="1" transform="translate(210.27398989898987,0)"><line stroke="currentColor" y2="0"></line><text fill="currentColor" y="3" dy="0.71em">Jun</text><line class="grid-line" stroke="rgb(230,230,230)" x1="0" x2="0" y1="0" y2="-250"></line></g><g class="tick" opacity="1" transform="translate(327.54671717171715,0)"><line stroke="currentColor" y2="0"></line><text fill="currentColor" y="3" dy="0.71em">Jul</text><line class="grid-line" stroke="rgb(230,230,230)" x1="0" x2="0" y1="0" y2="-250"></line></g><g class="tick" opacity="1" transform="translate(448.7285353535354,0)"><line stroke="currentColor" y2="0"></line><text fill="currentColor" y="3" dy="0.71em">Aug</text><line class="grid-line" stroke="rgb(230,230,230)" x1="0" x2="0" y1="0" y2="-250"></line></g></g><path fill="none" stroke="rgb(180, 180, 180)" stroke-width="2" d="M157.273,262.5L184.636,247.5L212,234L239.364,224.5L266.727,200L294.091,154L325.364,149.5L348.818,130"></path><g><circle cx="157.27272727272725" cy="262.5" r="4" fill="rgb(123,123,123)" stroke="rgb(255,255,255)" stroke-width="1"></circle><circle cx="184.63636363636363" cy="247.50000000000003" r="4" fill="rgb(123,123,123)" stroke="rgb(255,255,255)" stroke-width="1"></circle><circle cx="212" cy="234" r="4" fill="rgb(123,123,123)" stroke="rgb(255,255,255)" stroke-width="1"></circle><circle cx="239.36363636363637" cy="224.5" r="4" fill="rgb(123,123,123)" stroke="rgb(255,255,255)" stroke-width="1"></circle><circle cx="266.7272727272727" cy="200" r="4" fill="rgb(123,123,123)" stroke="rgb(255,255,255)" stroke-width="1"></circle><circle cx="294.0909090909091" cy="154" r="4" fill="rgb(123,123,123)" stroke="rgb(255,255,255)" stroke-width="1"></circle><circle cx="325.3636363636364" cy="149.5" r="4" fill="rgb(123,123,123)" stroke="rgb(255,255,255)" stroke-width="1"></circle><circle cx="348.81818181818176" cy="129.99999999999997" r="4" fill="rgb(123,123,123)" stroke="rgb(255,255,255)" stroke-width="1"></circle></g></svg>
