<svg xmlns="http://www.w3.org/2000/svg" width="500" height="300" viewBox="0 0 500 300"><rect x="0" y="0" width="500" height="300" fill="rgb(255,255,255)"></rect><text x="50" y="30" text-anchor="middle" font-size="20px">6級</text><text x="200" y="30" text-anchor="end" font-size="17px" fill="rgb(15,108,8)">inoue_r</text><rect x="40" y="50" width="430" height="220" stroke="rgb(155,155,155)" fill="rgb(216,216,216)"></rect><rect x="40" y="202.3076923076923" width="430" height="67.69230769230771" fill="rgb(216,216,216)"></rect><rect x="40" y="134.6153846153846" width="430" height="67.69230769230768" fill="rgb(215,197,178)"></rect><rect x="40" y="66.9230769230769" width="430" height="67.69230769230771" fill="rgb(188,216,184)"></rect><rect x="40" y="50" width="430" height="16.923076923076906" fill="rgb(196,236,236)"></rect><g class="y-axis" transform="translate(40, 0)" fill="none" font-size="10" font-family="sans-serif" text-anchor="end"><path class="domain" stroke="rgb(155,155,155)" d="M0.5,270.5V50.5"></path><g class="tick" opacity="1" transform="translate(0,270.5)"><line stroke="currentColor" x2="0"></line><text fill="currentColor" x="-3" dy="0.32em">0</text><line class="y-grid-line" stroke="rgb(230,230,230)" x1="0" x2="430" y1="0" y2="0"></line></g><g class="tick" opacity="1" transform="translate(0,202.8076923076923)"><line stroke="currentColor" x2="0"></line><text fill="currentColor" x="-3" dy="0.32em">400</text><line class="y-grid-line" stroke="rgb(230,230,230)" x1="0" x2="430" y1="0" y2="0"></line></g><g class="tick" opacity="1" transform="translate(0,135.1153846153846)"><line stroke="currentColor" x2="0"></line><text fill="currentColor" x="-3" dy="0.32em">800</text><line class="y-grid-line" stroke="rgb(230,230,230)" x1="0" x2="430" y1="0" y2="0"></line></g><g class="tick" opacity="1" transform="translate(0,67.4230769230769)"><line stroke="currentColor" x2="0"></line><text fill="currentColor" x="-3" dy="0.32em">1,200</text><line class="y-grid-line" stroke="rgb(230,230,230)" x1="0" x2="430" y1="0" y2="0"></line></g></g><g class="x-axis" transform="translate(0,270)" fill="none" font-size="10" font-family="sans-serif" text-anchor="middle"><path class="domain" stroke="rgb(155,155,155)" d="M40.5,0.5H470.5"></path><g class="tick" opacity="1" transform="translate(63.94359161793373,0)"><line stroke="currentColor" y2="0"></line><text fill="currentColor" y="3" dy="0.71em">May</text><line class="grid-line" stroke="rgb(230,230,230)" x1="0" x2="0" y1="0" y2="-220"></line></g><g class="tick" opacity="1" transform="translate(178.9874512670565,0)"><line stroke="currentColor" y2="0"></line><text fill="currentColor" y="3" dy="0.71em">Jul</text><line class="grid-line" stroke="rgb(230,230,230)" x1="0" x2="0" y1="0" y2="-220"></line></g><g class="tick" opacity="1" transform="translate(295.91727582846,0)"><line stroke="currentColor" y2="0"></line><text fill="currentColor" y="3" dy="0.71em">Sep</text><line class="grid-line" stroke="rgb(230,230,230)" x1="0" x2="0" y1="0" y2="-220"></line></g><g class="tick" opacity="1" transform="translate(410.96113547758284,0)"><line stroke="currentColor" y2="0"></line><text fill="currentColor" y="3" dy="0.71em">Nov</text><line class="grid-line" stroke="rgb(230,230,230)" x1="0" x2="0" y1="0" y2="-220"></line></g></g><path fill="none" stroke="rgb(180, 180, 180)" stroke-width="2" d="M96.57894736842104,267.4615384615385L109.78070175438597,262.38461538461536L122.98245614035088,257.81538461538463L136.18421052631578,254.6L149.3859649122807,246.3076923076923L162.5877192982456,230.73846153846156L177.67543859649123,229.21538461538464L188.99122807017545,222.6153846153846L202.19298245614036,219.4L215.39473684210526,190.12307692307692L241.7982456140351,186.9076923076923L255,172.6923076923077L268.20175438596493,165.24615384615385L281.4035087719298,150.86153846153846L294.60526315789474,149.67692307692306L307.8070175438597,152.8923076923077L321.00877192982455,142.73846153846154L334.2105263157895,135.8L347.41228070175436,132.75384615384615L387.0175438596491,116.84615384615385L400.2192982456141,109.90769230769232L413.42105263157896,105.84615384615384"></path><g><circle cx="96.57894736842104" cy="267.4615384615385" r="4" fill="rgb(123,123,123)" stroke="rgb(255,255,255)" stroke-width="1"></circle><circle cx="109.78070175438597" cy="262.38461538461536" r="4" fill="rgb(123,123,123)" stroke="rgb(255,255,255)" stroke-width="1"></circle><circle cx="122.98245614035088" cy="257.81538461538463" r="4" fill="rgb(123,123,123)" stroke="rgb(255,255,255)" stroke-width="1"></circle><circle cx="136.18421052631578" cy="254.6" r="4" fill="rgb(123,123,123)" stroke="rgb(255,255,255)" stroke-width="1"></circle><circle cx="149.3859649122807" cy="246.3076923076923" r="4" fill="rgb(123,123,123)" stroke="rgb(255,255,255)" stroke-width="1"></circle><circle cx="162.5877192982456" cy="230.73846153846156" r="4" fill="rgb(123,123,123)" stroke="rgb(255,255,255)" stroke-width="1"></circle><circle cx="177.67543859649123" cy="229.21538461538464" r="4" fill="rgb(123,123,123)" stroke="rgb(255,255,255)" stroke-width="1"></circle><circle cx="188.99122807017545" cy="222.6153846153846" r="4" fill="rgb(123,123,123)" stroke="rgb(255,255,255)" stroke-width="1"></circle><circle cx="202.19298245614036" cy="219.4" r="4" fill="rgb(123,123,123)" stroke="rgb(255,255,255)" stroke-width="1"></circle><circle cx="215.39473684210526" cy="190.12307692307692" r="4" fill="rgb(122,62,0)" stroke="rgb(255,255,255)" stroke-width="1"></circle><circle cx="241.7982456140351" cy="186.9076923076923" r="4" fill="rgb(122,62,0)" stroke="rgb(255,255,255)" stroke-width="1"></circle><circle cx="255" cy="172.6923076923077" r="4" fill="rgb(122,62,0)" stroke="rgb(255,255,255)" stroke-width="1"></circle><circle cx="268.20175438596493" cy="165.24615384615385" r="4" fill="rgb(122,62,0)" stroke="rgb(255,255,255)" stroke-width="1"></circle><circle cx="281.4035087719298" cy="150.86153846153846" r="4" fill="rgb(122,62,0)" stroke="rgb(255,255,255)" stroke-width="1"></circle><circle cx="294.60526315789474" cy="149.67692307692306" r="4" fill="rgb(122,62,0)" stroke="rgb(255,255,255)" stroke-width="1"></circle><circle cx="307.8070175438597" cy="152.8923076923077" r="4" fill="rgb(122,62,0)" stroke="rgb(255,255,255)" stroke-width="1"></circle><circle cx="321.00877192982455" cy="142.73846153846154" r="4" fill="rgb(122,62,0)" stroke="rgb(255,255,255)" stroke-width="1"></circle><circle cx="334.2105263157895" cy="135.8" r="4" fill="rgb(122,62,0)" stroke="rgb(255,255,255)" stroke-width="1"></circle><circle cx="347.41228070175436" cy="132.75384615384615" r="4" fill="rgb(15,108,8)" stroke="rgb(255,255,255)" stroke-width="1"></circle><circle cx="387.0175438596491" cy="116.84615384615385" r="4" fill="rgb(15,108,8)" stroke="rgb(255,255,255)" stroke-width="1"></circle><circle cx="400.2192982456141" cy="109.90769230769232" r="4" fill="rgb(15,108,8)" stroke="rgb(255,255,255)" stroke-width="1"></circle><circle cx="413.42105263157896" cy="105.84615384615384" r="4" fill="rgb(15,108,8)" stroke="rgb(255,255,255)" stroke-width="1"></circle></g></svg>