<svg xmlns="http://www.w3.org/2000/svg" width="500" height="300" viewBox="0 0 500 300"><rect x="0" y="0" width="500" height="300" fill="rgb(255,255,255)"></rect><text x="50" y="30" text-anchor="middle" font-size="20px">5級</text><text x="200" y="30" text-anchor="end" font-size="17px" fill="rgb(15,108,8)">inoue_r</text><rect x="40" y="50" width="430" height="220" stroke="rgb(155,155,155)" fill="rgb(216,216,216)"></rect><rect x="40" y="202.3076923076923" width="430" height="67.69230769230771" fill="rgb(216,216,216)"></rect><rect x="40" y="134.6153846153846" width="430" height="67.69230769230768" fill="rgb(215,197,178)"></rect><rect x="40" y="66.9230769230769" width="430" height="67.69230769230771" fill="rgb(188,216,184)"></rect><rect x="40" y="50" width="430" height="16.923076923076906" fill="rgb(196,236,236)"></rect><g class="y-axis" transform="translate(40, 0)" fill="none" font-size="10" font-family="sans-serif" text-anchor="end"><path class="domain" stroke="rgb(155,155,155)" d="M0.5,270.5V50.5"></path><g class="tick" opacity="1" transform="translate(0,270.5)"><line stroke="currentColor" x2="0"></line><text fill="currentColor" x="-3" dy="0.32em">0</text><line class="y-grid-line" stroke="rgb(230,230,230)" x1="0" x2="430" y1="0" y2="0"></line></g><g class="tick" opacity="1" transform="translate(0,202.8076923076923)"><line stroke="currentColor" x2="0"></line><text fill="currentColor" x="-3" dy="0.32em">400</text><line class="y-grid-line" stroke="rgb(230,230,230)" x1="0" x2="430" y1="0" y2="0"></line></g><g class="tick" opacity="1" transform="translate(0,135.1153846153846)"><line stroke="currentColor" x2="0"></line><text fill="currentColor" x="-3" dy="0.32em">800</text><line class="y-grid-line" stroke="rgb(230,230,230)" x1="0" x2="430" y1="0" y2="0"></line></g><g class="tick" opacity="1" transform="translate(0,67.4230769230769)"><line stroke="currentColor" x2="0"></line><text fill="currentColor" x="-3" dy="0.32em">1,200</text><line class="y-grid-line" stroke="rgb(230,230,230)" x1="0" x2="430" y1="0" y2="0"></line></g></g><g class="x-axis" transform="translate(0,270)" fill="none" font-size="10" font-family="sans-serif" text-anchor="middle"><path class="domain" stroke="rgb(155,155,155)" d="M40.5,0.5H470.5"></path><g class="tick" opacity="1" transform="translate(61.37944878472222,0)"><line stroke="currentColor" y2="0"></line><text fill="currentColor" y="3" dy="0.71em">May</text><line class="grid-line" stroke="rgb(230,230,230)" x1="0" x2="0" y1="0" y2="-220"></line></g><g class="tick" opacity="1" transform="translate(163.84038628472223,0)"><line stroke="currentColor" y2="0"></line><text fill="currentColor" y="3" dy="0.71em">Jul</text><line class="grid-line" stroke="rgb(230,230,230)" x1="0" x2="0" y1="0" y2="-220"></line></g><g class="tick" opacity="1" transform="translate(267.9810112847222,0)"><line stroke="currentColor" y2="0"></line><text fill="currentColor" y="3" dy="0.71em">Sep</text><line class="grid-line" stroke="rgb(230,230,230)" x1="0" x2="0" y1="0" y2="-220"></line></g><g class="tick" opacity="1" transform="translate(370.44194878472223,0)"><line stroke="currentColor" y2="0"></line><text fill="currentColor" y="3" dy="0.71em">Nov</text><line class="grid-line" stroke="rgb(230,230,230)" x1="0" x2="0" y1="0" y2="-220"></line></g></g><path fill="none" stroke="rgb(180, 180, 180)" stroke-width="2" d="M90.390625,267.4615384615385L102.1484375,262.38461538461536L113.90625,257.81538461538463L125.6640625,254.6L137.421875,246.3076923076923L149.1796875,230.73846153846156L162.6171875,229.21538461538464L172.6953125,222.6153846153846L184.453125,219.4L196.2109375,190.12307692307692L219.7265625,186.9076923076923L231.484375,172.6923076923077L243.2421875,165.24615384615385L255,150.86153846153846L266.7578125,149.67692307692306L278.515625,152.8923076923077L290.2734375,142.73846153846154L302.03125,135.8L313.7890625,132.75384615384615L349.0625,116.84615384615385L360.8203125,109.90769230769232L372.578125,105.84615384615384L384.3359375,105.84615384615384L396.09375,103.13846153846156L419.609375,95.01538461538462"></path><g><circle cx="90.390625" cy="267.4615384615385" r="4" fill="rgb(123,123,123)" stroke="rgb(255,255,255)" stroke-width="1"></circle><circle cx="102.1484375" cy="262.38461538461536" r="4" fill="rgb(123,123,123)" stroke="rgb(255,255,255)" stroke-width="1"></circle><circle cx="113.90625" cy="257.81538461538463" r="4" fill="rgb(123,123,123)" stroke="rgb(255,255,255)" stroke-width="1"></circle><circle cx="125.6640625" cy="254.6" r="4" fill="rgb(123,123,123)" stroke="rgb(255,255,255)" stroke-width="1"></circle><circle cx="137.421875" cy="246.3076923076923" r="4" fill="rgb(123,123,123)" stroke="rgb(255,255,255)" stroke-width="1"></circle><circle cx="149.1796875" cy="230.73846153846156" r="4" fill="rgb(123,123,123)" stroke="rgb(255,255,255)" stroke-width="1"></circle><circle cx="162.6171875" cy="229.21538461538464" r="4" fill="rgb(123,123,123)" stroke="rgb(255,255,255)" stroke-width="1"></circle><circle cx="172.6953125" cy="222.6153846153846" r="4" fill="rgb(123,123,123)" stroke="rgb(255,255,255)" stroke-width="1"></circle><circle cx="184.453125" cy="219.4" r="4" fill="rgb(123,123,123)" stroke="rgb(255,255,255)" stroke-width="1"></circle><circle cx="196.2109375" cy="190.12307692307692" r="4" fill="rgb(122,62,0)" stroke="rgb(255,255,255)" stroke-width="1"></circle><circle cx="219.7265625" cy="186.9076923076923" r="4" fill="rgb(122,62,0)" stroke="rgb(255,255,255)" stroke-width="1"></circle><circle cx="231.484375" cy="172.6923076923077" r="4" fill="rgb(122,62,0)" stroke="rgb(255,255,255)" stroke-width="1"></circle><circle cx="243.2421875" cy="165.24615384615385" r="4" fill="rgb(122,62,0)" stroke="rgb(255,255,255)" stroke-width="1"></circle><circle cx="255" cy="150.86153846153846" r="4" fill="rgb(122,62,0)" stroke="rgb(255,255,255)" stroke-width="1"></circle><circle cx="266.7578125" cy="149.67692307692306" r="4" fill="rgb(122,62,0)" stroke="rgb(255,255,255)" stroke-width="1"></circle><circle cx="278.515625" cy="152.8923076923077" r="4" fill="rgb(122,62,0)" stroke="rgb(255,255,255)" stroke-width="1"></circle><circle cx="290.2734375" cy="142.73846153846154" r="4" fill="rgb(122,62,0)" stroke="rgb(255,255,255)" stroke-width="1"></circle><circle cx="302.03125" cy="135.8" r="4" fill="rgb(122,62,0)" stroke="rgb(255,255,255)" stroke-width="1"></circle><circle cx="313.7890625" cy="132.75384615384615" r="4" fill="rgb(15,108,8)" stroke="rgb(255,255,255)" stroke-width="1"></circle><circle cx="349.0625" cy="116.84615384615385" r="4" fill="rgb(15,108,8)" stroke="rgb(255,255,255)" stroke-width="1"></circle><circle cx="360.8203125" cy="109.90769230769232" r="4" fill="rgb(15,108,8)" stroke="rgb(255,255,255)" stroke-width="1"></circle><circle cx="372.578125" cy="105.84615384615384" r="4" fill="rgb(15,108,8)" stroke="rgb(255,255,255)" stroke-width="1"></circle><circle cx="384.3359375" cy="105.84615384615384" r="4" fill="rgb(15,108,8)" stroke="rgb(255,255,255)" stroke-width="1"></circle><circle cx="396.09375" cy="103.13846153846156" r="4" fill="rgb(15,108,8)" stroke="rgb(255,255,255)" stroke-width="1"></circle><circle cx="419.609375" cy="95.01538461538462" r="4" fill="rgb(15,108,8)" stroke="rgb(255,255,255)" stroke-width="1"></circle></g></svg>