<svg xmlns="http://www.w3.org/2000/svg" width="500" height="300" viewBox="0 0 500 300"><rect x="0" y="0" width="500" height="300" fill="rgb(255,255,255)"></rect><text x="50" y="30" text-anchor="middle" font-size="20px">7級</text><text x="200" y="30" text-anchor="end" font-size="17px" fill="rgb(122,62,0)">inoue_r</text><rect x="40" y="50" width="430" height="220" stroke="rgb(155,155,155)" fill="rgb(216,216,216)"></rect><rect x="40" y="172.22222222222223" width="430" height="97.77777777777777" fill="rgb(216,216,216)"></rect><rect x="40" y="74.44444444444446" width="430" height="97.77777777777777" fill="rgb(215,197,178)"></rect><rect x="40" y="50" width="430" height="24.444444444444457" fill="rgb(188,216,184)"></rect><g class="y-axis" transform="translate(40, 0)" fill="none" font-size="10" font-family="sans-serif" text-anchor="end"><path class="domain" stroke="rgb(155,155,155)" d="M0.5,270.5V50.5"></path><g class="tick" opacity="1" transform="translate(0,270.5)"><line stroke="currentColor" x2="0"></line><text fill="currentColor" x="-3" dy="0.32em">0</text><line class="y-grid-line" stroke="rgb(230,230,230)" x1="0" x2="430" y1="0" y2="0"></line></g><g class="tick" opacity="1" transform="translate(0,172.72222222222223)"><line stroke="currentColor" x2="0"></line><text fill="currentColor" x="-3" dy="0.32em">400</text><line class="y-grid-line" stroke="rgb(230,230,230)" x1="0" x2="430" y1="0" y2="0"></line></g><g class="tick" opacity="1" transform="translate(0,74.94444444444446)"><line stroke="currentColor" x2="0"></line><text fill="currentColor" x="-3" dy="0.32em">800</text><line class="y-grid-line" stroke="rgb(230,230,230)" x1="0" x2="430" y1="0" y2="0"></line></g></g><g class="x-axis" transform="translate(0,270)" fill="none" font-size="10" font-family="sans-serif" text-anchor="middle"><path class="domain" stroke="rgb(155,155,155)" d="M40.5,0.5H470.5"></path><g class="tick" opacity="1" transform="translate(75.6653874269006,0)"><line stroke="currentColor" y2="0"></line><text fill="currentColor" y="3" dy="0.71em">May</text><line class="grid-line" stroke="rgb(230,230,230)" x1="0" x2="0" y1="0" y2="-220"></line></g><g class="tick" opacity="1" transform="translate(163.36275584795322,0)"><line stroke="currentColor" y2="0"></line><text fill="currentColor" y="3" dy="0.71em">Jun</text><line class="grid-line" stroke="rgb(230,230,230)" x1="0" x2="0" y1="0" y2="-220"></line></g><g class="tick" opacity="1" transform="translate(248.23117690058479,0)"><line stroke="currentColor" y2="0"></line><text fill="currentColor" y="3" dy="0.71em">Jul</text><line class="grid-line" stroke="rgb(230,230,230)" x1="0" x2="0" y1="0" y2="-220"></line></g><g class="tick" opacity="1" transform="translate(335.92854532163744,0)"><line stroke="currentColor" y2="0"></line><text fill="currentColor" y="3" dy="0.71em">Aug</text><line class="grid-line" stroke="rgb(230,230,230)" x1="0" x2="0" y1="0" y2="-220"></line></g><g class="tick" opacity="1" transform="translate(423.62591374269005,0)"><line stroke="currentColor" y2="0"></line><text fill="currentColor" y="3" dy="0.71em">Sep</text><line class="grid-line" stroke="rgb(230,230,230)" x1="0" x2="0" y1="0" y2="-220"></line></g></g><path fill="none" stroke="rgb(180, 180, 180)" stroke-width="2" d="M124.86842105263159,266.3333333333333L144.67105263157896,259L164.4736842105263,252.4L184.2763157894737,247.75555555555553L204.07894736842104,235.77777777777777L223.8815789473684,213.2888888888889L246.51315789473682,211.08888888888887L263.4868421052632,201.55555555555554L283.2894736842105,196.91111111111113L303.0921052631579,154.6222222222222L342.69736842105266,149.97777777777776L362.5,129.44444444444446L382.30263157894734,118.68888888888887"></path><g><circle cx="124.86842105263159" cy="266.3333333333333" r="4" fill="rgb(123,123,123)" stroke="rgb(255,255,255)" stroke-width="1"></circle><circle cx="144.67105263157896" cy="259" r="4" fill="rgb(123,123,123)" stroke="rgb(255,255,255)" stroke-width="1"></circle><circle cx="164.4736842105263" cy="252.4" r="4" fill="rgb(123,123,123)" stroke="rgb(255,255,255)" stroke-width="1"></circle><circle cx="184.2763157894737" cy="247.75555555555553" r="4" fill="rgb(123,123,123)" stroke="rgb(255,255,255)" stroke-width="1"></circle><circle cx="204.07894736842104" cy="235.77777777777777" r="4" fill="rgb(123,123,123)" stroke="rgb(255,255,255)" stroke-width="1"></circle><circle cx="223.8815789473684" cy="213.2888888888889" r="4" fill="rgb(123,123,123)" stroke="rgb(255,255,255)" stroke-width="1"></circle><circle cx="246.51315789473682" cy="211.08888888888887" r="4" fill="rgb(123,123,123)" stroke="rgb(255,255,255)" stroke-width="1"></circle><circle cx="263.4868421052632" cy="201.55555555555554" r="4" fill="rgb(123,123,123)" stroke="rgb(255,255,255)" stroke-width="1"></circle><circle cx="283.2894736842105" cy="196.91111111111113" r="4" fill="rgb(123,123,123)" stroke="rgb(255,255,255)" stroke-width="1"></circle><circle cx="303.0921052631579" cy="154.6222222222222" r="4" fill="rgb(122,62,0)" stroke="rgb(255,255,255)" stroke-width="1"></circle><circle cx="342.69736842105266" cy="149.97777777777776" r="4" fill="rgb(122,62,0)" stroke="rgb(255,255,255)" stroke-width="1"></circle><circle cx="362.5" cy="129.44444444444446" r="4" fill="rgb(122,62,0)" stroke="rgb(255,255,255)" stroke-width="1"></circle><circle cx="382.30263157894734" cy="118.68888888888887" r="4" fill="rgb(122,62,0)" stroke="rgb(255,255,255)" stroke-width="1"></circle></g></svg>